<svg width="104" height="55" fill="none" xmlns="http://www.w3.org/2000/svg"><path d="M21 54H10.6V13.8l-10 3.9V9.2l19.2-7.9h1V54zm45.4-21.8c0 7.3-1.3 12.9-4 16.7a12.8 12.8 0 0 1-11.2 5.8 13 13 0 0 1-11.3-5.6c-2.6-3.7-4-9.1-4-16V23c0-7.3 1.3-12.8 3.9-16.7C42.4 2.6 46.2.7 51.1.7c5 0 8.7 1.9 11.3 5.7 2.6 3.8 4 9.2 4 16.3v9.5zM56.2 21.6c0-4.2-.4-7.3-1.3-9.3-.8-2.1-2-3.1-3.8-3.1-3.2 0-5 3.8-5 11.3v13.2c0 4.2.4 7.4 1.2 9.4.8 2.1 2.1 3.1 3.9 3.1 1.6 0 2.9-1 3.7-2.9.8-2 1.2-4.9 1.3-8.9V21.6zm47.7 10.6c0 7.3-1.4 12.9-4 16.7a12.8 12.8 0 0 1-11.3 5.8 13 13 0 0 1-11.2-5.6c-2.6-3.7-4-9.1-4.1-16V23c0-7.3 1.3-12.8 4-16.7C79.8 2.6 83.5.7 88.4.7c5 0 8.7 1.9 11.4 5.7 2.6 3.8 4 9.2 4 16.3v9.5zM93.6 21.6c0-4.2-.4-7.3-1.2-9.3-.8-2.1-2.1-3.1-3.9-3.1-3.2 0-4.9 3.8-5 11.3v13.2c0 4.2.4 7.4 1.2 9.4.9 2.1 2.2 3.1 4 3.1 1.6 0 2.8-1 3.6-2.9.8-2 1.3-4.9 1.3-8.9V21.6z" fill="#fff"/></svg>