<svg width="67" height="53" fill="none" xmlns="http://www.w3.org/2000/svg"><path d="M30.9 7.2L14.9 52H4.7l16-42.3H.4V1.5h30.5v5.7zm35.6 24c0 7-1.2 12.2-3.8 16A12.3 12.3 0 0 1 52 52.6c-4.6 0-8.2-1.8-10.8-5.4A27.5 27.5 0 0 1 37.2 32v-9.6c0-7 1.3-12.2 3.8-16C43.5 2.8 47 .9 51.8.9c4.8 0 8.4 1.9 10.9 5.5 2.5 3.7 3.8 8.9 3.8 15.6v9.2zm-9.8-10.3c0-4-.4-7-1.2-9-.8-2-2-3-3.7-3-3 0-4.7 3.7-4.8 11v12.6c0 4 .4 7 1.2 9 .8 2 2 3 3.7 3 1.6 0 2.8-.9 3.5-2.7.8-1.9 1.2-4.8 1.3-8.6V21z" fill="url(#paint0_linear)"/><defs><linearGradient id="paint0_linear" x1="-2" y1="3" x2="29" y2="62.4" gradientUnits="userSpaceOnUse"><stop stop-color="#D10A42"/><stop offset="1" stop-color="#0041CA"/></linearGradient></defs></svg>