<svg width="102" height="53" fill="none" xmlns="http://www.w3.org/2000/svg"><path d="M19.3 32.5a9.4 9.4 0 0 1-6.8 3.2c-3.8 0-6.9-1.6-9-4.6A21 21 0 0 1 0 18.7c0-3.3.6-6.4 1.9-9.1 1.2-2.8 3-5 5.2-6.5a13 13 0 0 1 15 .3c2.3 1.6 4 4 5.2 7.2 1.3 3.2 1.9 6.8 1.9 10.8V25A32 32 0 0 1 23.6 45a19.5 19.5 0 0 1-16 7.4h-1v-8.4h.6c3.8 0 6.7-1 8.6-3 2-2 3.1-4.9 3.5-8.6zM15 28c1.9 0 3.4-1.3 4.5-4v-4.4c0-3.3-.5-6-1.4-7.8-.9-1.9-2-2.8-3.5-2.8-1.4 0-2.5 1-3.4 2.8-.9 1.8-1.3 4.1-1.3 6.8 0 2.9.4 5.2 1.3 6.9 1 1.6 2.2 2.5 3.8 2.5zM65.5 31c0 7-1.2 12.3-3.8 16A12.3 12.3 0 0 1 51 52.7c-4.6 0-8.2-1.8-10.8-5.4A27.5 27.5 0 0 1 36.2 32v-9.6c0-7 1.3-12.2 3.8-16C42.5 2.8 46 .9 50.8.9c4.8 0 8.4 1.9 10.9 5.5 2.5 3.7 3.8 8.9 3.8 15.6v9.2zM55.7 21c0-4-.4-7-1.2-9-.8-2-2-3-3.7-3-3 0-4.7 3.7-4.8 11v12.6c0 4 .4 7 1.2 9 .8 2 2 3 3.7 3 1.6 0 2.8-.9 3.5-2.7.8-1.9 1.2-4.8 1.3-8.6V21zm45.8 10.2c0 7-1.3 12.3-3.9 16a12.3 12.3 0 0 1-10.8 5.6c-4.6 0-8.2-1.8-10.8-5.4A27.5 27.5 0 0 1 72.1 32v-9.6c0-7 1.3-12.2 3.8-16C78.4 2.8 82 .9 86.8.9c4.7 0 8.3 1.9 10.8 5.5 2.5 3.7 3.8 8.9 3.9 15.6v9.2zM91.6 21c0-4-.4-7-1.2-9-.8-2-2-3-3.6-3-3.2 0-4.8 3.7-4.9 11v12.6c0 4 .4 7 1.2 9 .8 2 2 3 3.7 3 1.6 0 2.8-.9 3.6-2.7.7-1.9 1.2-4.8 1.2-8.6V21z" fill="url(#paint0_linear)"/><defs><linearGradient id="paint0_linear" x1="-3" y1="3" x2="19.4" y2="41.1" gradientUnits="userSpaceOnUse"><stop stop-color="#D10A42"/><stop offset="1" stop-color="#0041CA"/></linearGradient></defs></svg>