<svg width="19" height="14" fill="none" xmlns="http://www.w3.org/2000/svg">
<symbol id="icon-vk" viewBox="0 0 24 13">
<path fill-rule="evenodd" clip-rule="evenodd" d="M20.7 8.3l2.3 2.2.8 1.2c.4.6 0 1.3-.5 1.3h-3.5c-.9 0-1.6-.3-2.2-.9l-1.4-1.4-.6-.6c-.5-.3-1-.2-1.2.3-.3.5-.3 1-.4 1.6 0 .7-.3 1-1 1-1.8 0-3.5-.2-5-1S5.4 10 4.5 9C2.7 6.5 1.4 4 0 1.3-.2.8.1.4.7.4h3.5c.4 0 .7.3 1 .7a20 20 0 0 0 2.2 4.1l.9 1c.4.2.7.1 1-.3l.1-.8V2C9.3 1.3 8.9 1 8.2.8 8 .9 8 .7 8.2.5c.2-.3.5-.5 1-.5h4c.6.1.7.4.8 1v4.2c0 .2.1 1 .5 1 .4.2.6-.1.8-.3 1-1 1.6-2.1 2.3-3.3l.7-1.6c.1-.4.4-.6.9-.6h4.1c.6.2.8.4.6 1-.3 1-.9 1.8-1.5 2.5l-2 2.5c-.5.8-.5 1.2.3 1.9z" fill="#fff"/>
</symbol>

<symbol id="icon-insta" viewBox="0 0 24 24">
<path d="M17.5 0h-11C2.9 0 0 3 0 6.5v11C0 21.1 3 24 6.5 24h11c3.6 0 6.5-3 6.5-6.5v-11C24 2.9 21 0 17.5 0zM12 18.6a6.6 6.6 0 1 1 0-13.2 6.6 6.6 0 0 1 0 13.2zM18.7 7a2 2 0 1 1 0-3.9 2 2 0 0 1 0 3.9z" fill="#fff"/><path d="M12 6.8a5.2 5.2 0 1 0 0 10.4 5.2 5.2 0 0 0 0-10.4zM18.7 4.5a.5.5 0 1 0 0 1 .5.5 0 0 0 0-1z" fill="#fff"/>
</symbol>

<symbol id="icon-fb" viewBox="0 0 12 24">
<path d="M11.5 0H8.7C5.4 0 3.3 2.3 3.3 6v2.6H.5c-.3 0-.5.2-.5.5v4c0 .2.2.5.5.5h2.8v10c0 .2.2.4.5.4h3.8c.2 0 .4-.2.4-.5v-10h3.4c.3 0 .5-.2.5-.4V9c0-.1 0-.2-.2-.3l-.3-.2H8V6.3c0-1 .3-1.7 1.6-1.7h2c.2 0 .4-.2.4-.4V.5c0-.3-.2-.5-.5-.5z" fill="#fff"/>
</symbol>

<symbol id="logo-header" viewBox="0 0 87 20"><path d="M.7 5.2c0-1.5.3-2.6 1-3.4C2.5 1 3.5.6 5 .6 6.3.6 7.3 1 8 1.8c.7.8 1.1 1.9 1.1 3.4v.5H6.4V5c0-1.2-.5-1.8-1.4-1.8-1 0-1.5.6-1.5 1.8 0 .7.2 1.3.6 2a8 8 0 0 0 1.4 1.5l1.7 1.6a6.5 6.5 0 0 1 2 4.5c0 1.5-.4 2.6-1.2 3.4-.7.8-1.8 1.2-3.1 1.2-1.4 0-2.5-.4-3.2-1.2C1 17.2.6 16.1.6 14.6v-1h2.7v1.2c0 1.2.5 1.8 1.5 1.8s1.5-.6 1.5-1.8c0-.7-.2-1.3-.6-1.9l-1.4-1.6-1.6-1.5a7 7 0 0 1-1.5-2 6 6 0 0 1-.5-2.6zM11.2.8H14v14c0 1.2.5 1.8 1.5 1.8S17 16 17 14.8V.8h2.7v13.9c0 1.4-.4 2.6-1.1 3.4-.7.7-1.8 1.1-3.2 1.1-1.4 0-2.4-.4-3.2-1.1-.7-.8-1-2-1-3.4V.8zm15.2 0c2.8 0 4.2 1.5 4.2 4.5v2.4c0 3-1.4 4.5-4.2 4.5H25V19h-2.8V.8h4.2zm0 2.6H25v6.2h1.4c.4 0 .8-.2 1-.4.3-.3.4-.7.4-1.4V5.1c0-.6-.1-1-.4-1.3-.2-.3-.6-.4-1-.4zm9 0v5h3.9v2.7h-4v5.3h5V19h-7.8V.8h7.8v2.6h-5zm16 15.6h-2.8c-.2-.5-.3-1.3-.3-2.2v-2.9c0-.8-.2-1.4-.4-1.8-.3-.3-.8-.5-1.5-.5h-1V19h-2.8V.8h4.3c1.5 0 2.5.3 3.2 1 .7.7 1 1.8 1 3.2v1.4c0 1.9-.6 3.1-1.8 3.7 1.2.5 1.9 1.8 1.9 3.9v2.8c0 1 0 1.7.3 2.2zM46.9 3.4h-1.4V9h1.2c.5 0 1-.2 1.2-.5.3-.2.5-.7.5-1.4V5.3c0-1.3-.5-1.9-1.5-1.9zm11 8V9h4v5.7c0 1.5-.3 2.6-1 3.4-.8.8-1.8 1.2-3.2 1.2-1.4 0-2.5-.4-3.2-1.2-.7-.8-1-1.9-1-3.4V5.2c0-1.5.3-2.6 1-3.4.7-.8 1.8-1.2 3.2-1.2 1.4 0 2.4.4 3.2 1.2.7.8 1 1.9 1 3.4v1.7h-2.7V5c0-1.1-.4-1.7-1.4-1.7-1 0-1.5.6-1.5 1.8v9.8c0 1.2.5 1.8 1.5 1.8S59 16 59 14.8v-3.3h-1.3zm8.7 7.6v-6L63 .8h3L68 9.1 70.3.8H73L69.4 13v6h-2.9zM78.6.8l2.1 13 2-13h4V19h-2.8V6l-2 13h-2.6L77 6.1V19h-2.5V.8h4z" fill="#fff"/>
</symbol>

<symbol id="logo-footer--desktop" viewBox="0 0 87 20">
<path d="M.7 5.2c0-1.5.3-2.6 1-3.4C2.5 1 3.5.6 5 .6 6.3.6 7.3 1 8 1.8c.7.8 1.1 1.9 1.1 3.4v.5H6.4V5c0-1.2-.5-1.8-1.4-1.8-1 0-1.5.6-1.5 1.8 0 .7.2 1.3.6 2a8 8 0 0 0 1.4 1.5l1.7 1.6a6.5 6.5 0 0 1 2 4.5c0 1.5-.4 2.6-1.2 3.4-.7.8-1.8 1.2-3.1 1.2-1.4 0-2.5-.4-3.2-1.2C1 17.2.6 16.1.6 14.6v-1h2.7v1.2c0 1.2.5 1.8 1.5 1.8s1.5-.6 1.5-1.8c0-.7-.2-1.3-.6-1.9l-1.4-1.6-1.6-1.5a7 7 0 0 1-1.5-2 6 6 0 0 1-.5-2.6zM11.2.8H14v14c0 1.2.5 1.8 1.5 1.8S17 16 17 14.8V.8h2.7v13.9c0 1.4-.4 2.6-1.1 3.4-.7.7-1.8 1.1-3.2 1.1-1.4 0-2.4-.4-3.2-1.1-.7-.8-1-2-1-3.4V.8zm15.2 0c2.8 0 4.2 1.5 4.2 4.5v2.4c0 3-1.4 4.5-4.2 4.5H25V19h-2.8V.8h4.2zm0 2.6H25v6.2h1.4c.4 0 .8-.2 1-.4.3-.3.4-.7.4-1.4V5.1c0-.6-.1-1-.4-1.3-.2-.3-.6-.4-1-.4zm9 0v5h3.9v2.7h-4v5.3h5V19h-7.8V.8h7.8v2.6h-5zm16 15.6h-2.8c-.2-.5-.3-1.3-.3-2.2v-2.9c0-.8-.2-1.4-.4-1.8-.3-.3-.8-.5-1.5-.5h-1V19h-2.8V.8h4.3c1.5 0 2.5.3 3.2 1 .7.7 1 1.8 1 3.2v1.4c0 1.9-.6 3.1-1.8 3.7 1.2.5 1.9 1.8 1.9 3.9v2.8c0 1 0 1.7.3 2.2zM46.9 3.4h-1.4V9h1.2c.5 0 1-.2 1.2-.5.3-.2.5-.7.5-1.4V5.3c0-1.3-.5-1.9-1.5-1.9zm11 8V9h4v5.7c0 1.5-.3 2.6-1 3.4-.8.8-1.8 1.2-3.2 1.2-1.4 0-2.5-.4-3.2-1.2-.7-.8-1-1.9-1-3.4V5.2c0-1.5.3-2.6 1-3.4.7-.8 1.8-1.2 3.2-1.2 1.4 0 2.4.4 3.2 1.2.7.8 1 1.9 1 3.4v1.7h-2.7V5c0-1.1-.4-1.7-1.4-1.7-1 0-1.5.6-1.5 1.8v9.8c0 1.2.5 1.8 1.5 1.8S59 16 59 14.8v-3.3h-1.3zm8.7 7.6v-6L63 .8h3L68 9.1 70.3.8H73L69.4 13v6h-2.9zM78.6.8l2.1 13 2-13h4V19h-2.8V6l-2 13h-2.6L77 6.1V19h-2.5V.8h4z" fill="#fff"/>
</symbol>

<symbol id="logo-header--tablet" viewBox="0 0 80 18">
<path d="M.6 4.2c0-1.3.4-2.4 1-3C2.3.3 3.2 0 4.6 0c1.2 0 2.2.4 2.8 1.1.7.7 1 1.8 1 3.1v.6H5.9V4c0-1.1-.4-1.7-1.3-1.7S3.3 3 3.3 4.1c0 .6.1 1.2.5 1.7.3.6.8 1 1.3 1.5l1.5 1.4A6 6 0 0 1 8.4 13c0 1.3-.3 2.4-1 3.1-.7.7-1.6 1-3 1-1.2 0-2.2-.3-2.8-1-.7-.7-1-1.8-1-3.1v-1H3V13c0 1.1.5 1.7 1.4 1.7 1 0 1.4-.6 1.4-1.7 0-.6-.2-1.2-.5-1.7L4 9.9 2.4 8.5C2 8 1.5 7.4 1.2 6.7.8 5.9.6 5 .6 4.2zm9.7-4h2.6v13c0 1 .5 1.6 1.4 1.6 1 0 1.4-.6 1.4-1.6V.2h2.5V13c0 1.4-.4 2.4-1 3.1-.7.8-1.7 1.1-3 1.1-1.2 0-2.2-.3-2.9-1-.7-.8-1-1.8-1-3.2V.2zm14 0c2.7 0 4 1.4 4 4.2v2.1c0 2.8-1.3 4.2-4 4.2h-1.2V17h-2.6V.2h3.8zm0 2.4h-1.2v5.7h1.2c.5 0 .8-.1 1-.4.2-.2.3-.6.3-1.2V4.2c0-.6 0-1-.3-1.2-.2-.3-.5-.4-1-.4zm8.3 0v4.7h3.6v2.4h-3.6v4.9h4.6V17H30V.2h7.2v2.4h-4.6zm15 14.4h-2.8l-.2-2v-2.7c0-.8-.2-1.3-.4-1.6-.3-.4-.7-.5-1.3-.5h-1V17h-2.6V.2h4c1.3 0 2.3.3 3 1 .6.6.9 1.6.9 2.9v1.3c0 1.7-.6 2.8-1.7 3.4 1.1.5 1.7 1.7 1.7 3.6V15c0 .9.1 1.6.3 2zM43.1 2.6H42v5.2h1c.6 0 1-.2 1.2-.4.3-.3.5-.8.5-1.4V4.3c0-1.1-.5-1.7-1.4-1.7zM53.4 10V7.6h3.7V13c0 1.3-.3 2.4-1 3.1-.7.7-1.7 1-3 1-1.2 0-2.2-.3-2.9-1-.6-.7-1-1.8-1-3.1V4.2c0-1.3.4-2.4 1-3C51 .3 52 0 53.2 0c1.2 0 2.2.4 2.9 1.1.7.7 1 1.8 1 3.1V6h-2.5V4c0-1.1-.5-1.7-1.4-1.7-.9 0-1.3.6-1.3 1.7v9c0 1.1.4 1.7 1.3 1.7 1 0 1.4-.6 1.4-1.7v-3h-1.2zm8 7v-5.6L58 .2h2.7l2 7.7 2-7.7h2.6L64 11.4V17h-2.6zM72.6.2l2 12 1.7-12H80V17h-2.5V5l-1.8 12h-2.5l-2-11.9V17h-2.3V.2h3.7z" fill="#fff"/>
</symbol>

<symbol id="logo-footer--mobile" viewBox="0 0 67 16">
<path d="M.5 4.4c0-1.2.3-2 .8-2.6C2 1 2.7.8 3.8.8c1 0 1.8.3 2.4 1 .5.6.8 1.4.8 2.6v.4H5v-.6c0-.9-.4-1.4-1.2-1.4-.7 0-1 .5-1 1.4 0 .5 0 1 .4 1.5.3.5.6.9 1 1.2l1.3 1.2A5 5 0 0 1 7 11.6c0 1.2-.3 2-.8 2.7-.6.6-1.4.9-2.5.9-1 0-1.8-.3-2.4-1-.6-.6-.8-1.4-.8-2.6v-.8h2v1c0 .9.4 1.3 1.2 1.3.7 0 1.1-.4 1.1-1.3 0-.5-.1-1-.4-1.5L3.3 9.1 2 7.9c-.4-.4-.7-1-1-1.5-.3-.6-.5-1.3-.5-2zm8-3.4h2.3v10.8c0 1 .4 1.4 1.1 1.4.8 0 1.2-.5 1.2-1.4V1h2v10.7c0 1-.2 2-.8 2.6-.6.6-1.4.9-2.4.9-1.1 0-2-.3-2.5-1-.5-.5-.8-1.4-.8-2.5V1zm11.8 0c2.2 0 3.3 1.2 3.3 3.5v1.8c0 2.3-1.1 3.4-3.3 3.4h-1V15H17V1h3.3zm0 2h-1v4.7h1c.3 0 .6 0 .8-.3.2-.2.3-.5.3-1v-2c0-.6-.1-.9-.3-1.1-.2-.2-.5-.3-.8-.3zm6.9 0v3.9h3v2h-3V13H31v2h-6V1h6v2h-3.8zm12.4 12h-2.2c-.2-.4-.2-1-.2-1.7V11c0-.7-.2-1.1-.4-1.4-.2-.3-.6-.4-1-.4H35V15h-2.2V1H36c1.1 0 2 .3 2.5.8s.7 1.3.7 2.4v1.1c0 1.5-.4 2.4-1.4 2.9 1 .4 1.5 1.4 1.5 3v2.1c0 .8 0 1.3.2 1.7zM36 3h-1v4.3h.8c.5 0 .8-.1 1-.3.2-.3.3-.6.3-1.2V4.4c0-1-.3-1.4-1-1.4zm8.5 6.2v-2h3v4.4c0 1.2-.2 2-.8 2.7-.5.6-1.3.9-2.4.9-1 0-1.9-.3-2.4-1-.6-.6-.9-1.4-.9-2.6V4.4c0-1.2.3-2 .9-2.6.5-.7 1.3-1 2.4-1 1 0 1.9.3 2.4 1 .6.6.9 1.4.9 2.6v1.3h-2.1V4.2c0-.9-.4-1.4-1.1-1.4-.8 0-1.2.5-1.2 1.4v7.6c0 .9.4 1.3 1.2 1.3.7 0 1.1-.4 1.1-1.3V9.2h-1zm6.7 5.8v-4.6L48.4 1h2.3l1.7 6.4L54 1h2.1l-2.7 9.4V15h-2.2zm9.3-14L62 11l1.5-10h3v14h-2V5L63 15h-2l-1.7-9.9V15h-1.9V1h3z" fill="#fff"/>
</symbol>

<symbol id="rub" viewBox="0 0 30 42">
<path fill-rule="evenodd" clip-rule="evenodd" d="M0 17h6v6H0v-6z" fill="#102654"/><path fill-rule="evenodd" clip-rule="evenodd" d="M3.7 28.3V18h6v10.3H21v6H9.7V42h-6v-7.7H0v-6h3.7z" fill="#102654"/><path fill-rule="evenodd" clip-rule="evenodd" d="M18.5 6H10v11h8.5a5.5 5.5 0 1 0 0-11zM4 0v23h14.5a11.5 11.5 0 1 0 0-23H4z" fill="#102654"/>
</symbol>


<symbol id="video-play" viewBox="0 0 13 15">
<path d="M13 7.5L.2 14.9V0L13 7.5z" fill="#fff"/>
</symbol>

<symbol id="900" viewBox="0 0 102 53">
<path d="M19.3 32.5a9.4 9.4 0 0 1-6.8 3.2c-3.8 0-6.9-1.6-9-4.6A21 21 0 0 1 0 18.7c0-3.3.6-6.4 1.9-9.1 1.2-2.8 3-5 5.2-6.5a13 13 0 0 1 15 .3c2.3 1.6 4 4 5.2 7.2 1.3 3.2 1.9 6.8 1.9 10.8V25A32 32 0 0 1 23.6 45a19.5 19.5 0 0 1-16 7.4h-1v-8.4h.6c3.8 0 6.7-1 8.6-3 2-2 3.1-4.9 3.5-8.6zM15 28c1.9 0 3.4-1.3 4.5-4v-4.4c0-3.3-.5-6-1.4-7.8-.9-1.9-2-2.8-3.5-2.8-1.4 0-2.5 1-3.4 2.8-.9 1.8-1.3 4.1-1.3 6.8 0 2.9.4 5.2 1.3 6.9 1 1.6 2.2 2.5 3.8 2.5zM65.5 31c0 7-1.2 12.3-3.8 16A12.3 12.3 0 0 1 51 52.7c-4.6 0-8.2-1.8-10.8-5.4A27.5 27.5 0 0 1 36.2 32v-9.6c0-7 1.3-12.2 3.8-16C42.5 2.8 46 .9 50.8.9c4.8 0 8.4 1.9 10.9 5.5 2.5 3.7 3.8 8.9 3.8 15.6v9.2zM55.7 21c0-4-.4-7-1.2-9-.8-2-2-3-3.7-3-3 0-4.7 3.7-4.8 11v12.6c0 4 .4 7 1.2 9 .8 2 2 3 3.7 3 1.6 0 2.8-.9 3.5-2.7.8-1.9 1.2-4.8 1.3-8.6V21zm45.8 10.2c0 7-1.3 12.3-3.9 16a12.3 12.3 0 0 1-10.8 5.6c-4.6 0-8.2-1.8-10.8-5.4A27.5 27.5 0 0 1 72.1 32v-9.6c0-7 1.3-12.2 3.8-16C78.4 2.8 82 .9 86.8.9c4.7 0 8.3 1.9 10.8 5.5 2.5 3.7 3.8 8.9 3.9 15.6v9.2zM91.6 21c0-4-.4-7-1.2-9-.8-2-2-3-3.6-3-3.2 0-4.8 3.7-4.9 11v12.6c0 4 .4 7 1.2 9 .8 2 2 3 3.7 3 1.6 0 2.8-.9 3.6-2.7.7-1.9 1.2-4.8 1.2-8.6V21z" fill="url(#paint0_linear)"/><defs><linearGradient id="paint0_linear" x1="-3" y1="3" x2="19.4" y2="41.1" gradientUnits="userSpaceOnUse"><stop stop-color="#D10A42"/><stop offset="1" stop-color="#0041CA"/></linearGradient></defs>
</symbol>

<symbol id="350" viewBox="0 0 103 53">
<path d="M10 22.3h4.8c1.8 0 3.1-.6 4-1.9a9 9 0 0 0 1.2-5c0-2-.4-3.6-1.3-4.7-.9-1.2-2-1.7-3.5-1.7-1.3 0-2.5.5-3.3 1.6-.9 1-1.3 2.4-1.3 4H.8c0-2.6.6-5 1.8-7 1.2-2.2 2.9-3.8 5-5C10 1.4 12.4.8 15 .8a15 15 0 0 1 10.9 3.9c2.6 2.5 4 6 4 10.5a12 12 0 0 1-1.9 6.4 12 12 0 0 1-4.7 4.5c2.4 1 4.2 2.5 5.3 4.5 1.2 2 1.8 4.5 1.8 7.3 0 4.4-1.4 8-4.3 10.7-2.8 2.7-6.6 4-11.2 4-4.3 0-7.9-1.2-10.6-3.9-2.6-2.7-4-6.2-4-10.5h9.8c0 1.8.5 3.3 1.5 4.5.9 1.2 2.1 1.8 3.6 1.8 1.6 0 3-.6 4-1.8 1-1.3 1.4-3 1.4-5 0-5-1.9-7.5-5.8-7.5H10v-8zm28.2 4.9l2.5-25.7h24.5V10H48.8l-1 10.8c2-1.2 3.9-1.9 6-1.9 4 0 7.3 1.5 9.5 4.5 2.3 3 3.4 7.1 3.4 12.5 0 5-1.3 9.2-4 12.2a13.5 13.5 0 0 1-10.8 4.7 15 15 0 0 1-7.3-1.9A14.2 14.2 0 0 1 37.2 38H47c.2 2.1.7 3.8 1.6 5a4 4 0 0 0 3.4 1.6c1.6 0 2.8-.7 3.7-2.3.9-1.5 1.3-3.9 1.3-7 0-2.9-.5-5-1.6-6.6a5 5 0 0 0-4.4-2.2c-1.8 0-3.2.7-4.3 2l-.6.8-7.8-2zm64.3 4c0 7-1.3 12.2-3.9 16a12.3 12.3 0 0 1-10.8 5.5c-4.6 0-8.2-1.8-10.8-5.4A27.5 27.5 0 0 1 73.1 32v-9.6c0-7 1.3-12.2 3.8-16C79.4 2.8 83 .9 87.8.9c4.7 0 8.3 1.9 10.8 5.5 2.5 3.7 3.8 8.9 3.9 15.6v9.2zm-9.9-10.3c0-4-.4-7-1.2-9-.8-2-2-3-3.6-3-3.2 0-4.8 3.7-4.9 11v12.6c0 4 .4 7 1.2 9 .8 2 2 3 3.7 3 1.6 0 2.8-.9 3.6-2.7.7-1.9 1.2-4.8 1.2-8.6V21z" fill="url(#paint0_linear)"/><defs><linearGradient id="paint0_linear" x1="-2" y1="3" x2="21.5" y2="70.4" gradientUnits="userSpaceOnUse"><stop stop-color="#D10A42"/><stop offset="1" stop-color="#0041CA"/></linearGradient></defs>
</symbol>

<symbol id="100" viewBox="0 0 104 55">
<path d="M21 54H10.6V13.8l-10 3.9V9.2l19.2-7.9h1V54zm45.4-21.8c0 7.3-1.3 12.9-4 16.7a12.8 12.8 0 0 1-11.2 5.8 13 13 0 0 1-11.3-5.6c-2.6-3.7-4-9.1-4-16V23c0-7.3 1.3-12.8 3.9-16.7C42.4 2.6 46.2.7 51.1.7c5 0 8.7 1.9 11.3 5.7 2.6 3.8 4 9.2 4 16.3v9.5zM56.2 21.6c0-4.2-.4-7.3-1.3-9.3-.8-2.1-2-3.1-3.8-3.1-3.2 0-5 3.8-5 11.3v13.2c0 4.2.4 7.4 1.2 9.4.8 2.1 2.1 3.1 3.9 3.1 1.6 0 2.9-1 3.7-2.9.8-2 1.2-4.9 1.3-8.9V21.6zm47.7 10.6c0 7.3-1.4 12.9-4 16.7a12.8 12.8 0 0 1-11.3 5.8 13 13 0 0 1-11.2-5.6c-2.6-3.7-4-9.1-4.1-16V23c0-7.3 1.3-12.8 4-16.7C79.8 2.6 83.5.7 88.4.7c5 0 8.7 1.9 11.4 5.7 2.6 3.8 4 9.2 4 16.3v9.5zM93.6 21.6c0-4.2-.4-7.3-1.2-9.3-.8-2.1-2.1-3.1-3.9-3.1-3.2 0-4.9 3.8-5 11.3v13.2c0 4.2.4 7.4 1.2 9.4.9 2.1 2.2 3.1 4 3.1 1.6 0 2.8-1 3.6-2.9.8-2 1.3-4.9 1.3-8.9V21.6z" fill="#fff"/>
</symbol>

<symbol id="70" viewBox="0 0 67 53">
<path d="M30.9 7.2L14.9 52H4.7l16-42.3H.4V1.5h30.5v5.7zm35.6 24c0 7-1.2 12.2-3.8 16A12.3 12.3 0 0 1 52 52.6c-4.6 0-8.2-1.8-10.8-5.4A27.5 27.5 0 0 1 37.2 32v-9.6c0-7 1.3-12.2 3.8-16C43.5 2.8 47 .9 51.8.9c4.8 0 8.4 1.9 10.9 5.5 2.5 3.7 3.8 8.9 3.8 15.6v9.2zm-9.8-10.3c0-4-.4-7-1.2-9-.8-2-2-3-3.7-3-3 0-4.7 3.7-4.8 11v12.6c0 4 .4 7 1.2 9 .8 2 2 3 3.7 3 1.6 0 2.8-.9 3.5-2.7.8-1.9 1.2-4.8 1.3-8.6V21z" fill="url(#paint0_linear)"/><defs><linearGradient id="paint0_linear" x1="-2" y1="3" x2="29" y2="62.4" gradientUnits="userSpaceOnUse"><stop stop-color="#D10A42"/><stop offset="1" stop-color="#0041CA"/></linearGradient></defs>
</symbol>

<symbol id="5" viewBox="0 0 65 52">
<path d="M1.3 26.2L3.8.5h24.4V9H11.8L11 19.7c2-1.2 3.9-1.9 5.9-1.9 4.2 0 7.4 1.5 9.6 4.5 2.3 3 3.4 7.1 3.4 12.5 0 5-1.3 9.2-4 12.2A13.5 13.5 0 0 1 15 51.7a15 15 0 0 1-7.4-1.9A14.2 14.2 0 0 1 .3 37H10c.2 2.1.7 3.8 1.6 5a4 4 0 0 0 3.4 1.6c1.6 0 2.8-.7 3.7-2.3.9-1.5 1.3-3.9 1.3-7 0-2.9-.5-5-1.6-6.6a5 5 0 0 0-4.4-2.2c-1.8 0-3.3.7-4.3 2l-.6.8-7.8-2zm53.1-3.5h9.8v9.1h-9.8V46h-9.3V32h-10v-9.2h10V9.2h9.3v13.5z" fill="url(#paint0_linear)"/><defs><linearGradient id="paint0_linear" x1="-3" y1="2" x2="28.5" y2="60.7" gradientUnits="userSpaceOnUse"><stop stop-color="#D10A42"/><stop offset="1" stop-color="#0041CA"/></linearGradient></defs>
</symbol>

<symbol id="4999" viewBox="0 0 137 52">
<path d="M26.7 32.2H31v8h-4.3V51h-9.6V40.2H.6L.2 34 17 1.2h9.7v31zm-17.1 0H17V15.6l-.2.3-7.3 16.3zm45.8-.4a9.3 9.3 0 0 1-6.7 3.1c-3.8 0-6.8-1.5-9-4.5-2.1-3.1-3.2-7.2-3.2-12.2 0-3.3.6-6.3 1.8-9a15 15 0 0 1 5.2-6.4 12.8 12.8 0 0 1 14.8.2 16 16 0 0 1 5.1 7.2 29 29 0 0 1 1.8 10.6v3.5c0 8.5-1.8 15.1-5.6 20-3.7 4.7-9 7.1-15.8 7.2h-1v-8.3h.7c3.7 0 6.6-1 8.5-3 1.9-1.9 3-4.7 3.4-8.4zm-4.3-4.5c2 0 3.4-1.3 4.5-3.8V19a18 18 0 0 0-1.4-7.6c-.9-1.9-2-2.8-3.4-2.8s-2.5 1-3.4 2.8c-.9 1.8-1.3 4-1.3 6.7 0 2.8.5 5 1.4 6.8.8 1.6 2 2.4 3.6 2.4zm39.7 4.5a9.3 9.3 0 0 1-6.7 3.1c-3.8 0-6.8-1.5-9-4.5C73 27.3 72 23.2 72 18.2c0-3.3.6-6.3 1.8-9A15 15 0 0 1 79 2.8a12.8 12.8 0 0 1 14.8.2 16 16 0 0 1 5.1 7.2 29 29 0 0 1 1.8 10.6v3.5c0 8.5-1.8 15.1-5.6 20-3.7 4.7-9 7.1-15.8 7.2h-1v-8.3h.7c3.8 0 6.6-1 8.5-3 1.9-1.9 3-4.7 3.4-8.4zm-4.2-4.5c1.8 0 3.3-1.3 4.4-3.8V19a18 18 0 0 0-1.4-7.6c-.9-1.9-2-2.8-3.4-2.8s-2.5 1-3.4 2.8c-.8 1.8-1.3 4-1.3 6.7 0 2.8.5 5 1.4 6.8.9 1.6 2 2.4 3.7 2.4zm39.6 4.5a9.3 9.3 0 0 1-6.7 3.1c-3.8 0-6.8-1.5-9-4.5-2.1-3.1-3.2-7.2-3.2-12.2 0-3.3.6-6.3 1.9-9a15 15 0 0 1 5-6.4 12.8 12.8 0 0 1 15 .2 16 16 0 0 1 5 7.2 29 29 0 0 1 1.9 10.6v3.5c0 8.5-2 15.1-5.7 20-3.7 4.7-9 7.1-15.8 7.2h-1v-8.3h.7c3.8 0 6.6-1 8.5-3 1.9-1.9 3-4.7 3.4-8.4zm-4.2-4.5c1.8 0 3.3-1.3 4.4-3.8V19a18 18 0 0 0-1.4-7.6c-.8-1.9-2-2.8-3.4-2.8s-2.5 1-3.4 2.8A16 16 0 0 0 117 18c0 2.8.5 5 1.4 6.8.9 1.6 2.1 2.4 3.7 2.4z" fill="#fff"/>
</symbol>

<symbol id="5000" viewBox="0 0 117 45">
<path d="M1.6 23L3.7 1.3h20.7v7.1H10.5l-.7 9.2c1.6-1.1 3.2-1.6 5-1.6 3.4 0 6.1 1.2 8 3.7 2 2.5 3 6 3 10.6 0 4.3-1.2 7.7-3.5 10.4-2.2 2.6-5.3 3.9-9 3.9C11 44.6 8.8 44 7 43A12 12 0 0 1 .8 32.1H9c.1 1.8.6 3.2 1.3 4.1.7 1 1.7 1.5 2.9 1.5 1.3 0 2.4-.7 3.1-2 .8-1.3 1.2-3.3 1.2-5.9 0-2.4-.5-4.3-1.4-5.5a4.3 4.3 0 0 0-3.7-2c-1.6 0-2.8.6-3.6 1.7l-.6.7L1.6 23zM56 26.4c0 5.9-1 10.4-3.2 13.5a10.4 10.4 0 0 1-9.1 4.7c-4 0-7-1.5-9.2-4.6-2-3-3.2-7.4-3.3-13v-8c0-6 1.1-10.4 3.2-13.6 2.2-3 5.2-4.6 9.2-4.6 4 0 7 1.5 9.2 4.6 2.1 3 3.2 7.5 3.2 13.2v7.8zm-8.3-8.7c0-3.3-.3-5.9-1-7.5-.7-1.7-1.7-2.6-3.1-2.6-2.6 0-4 3.1-4.1 9.3v10.6c0 3.4.3 6 1 7.7.7 1.7 1.7 2.5 3.2 2.5 1.3 0 2.3-.8 3-2.3.6-1.6 1-4 1-7.3V17.7zm38.7 8.7c0 5.9-1.1 10.4-3.3 13.5a10.4 10.4 0 0 1-9 4.7c-4 0-7-1.5-9.2-4.6-2.1-3-3.2-7.4-3.3-13v-8c0-6 1-10.4 3.2-13.6 2.1-3 5.2-4.6 9.1-4.6 4 0 7 1.5 9.2 4.6 2.1 3 3.2 7.5 3.3 13.2v7.8zM78 17.7c0-3.3-.4-5.9-1-7.5-.7-1.7-1.7-2.6-3.2-2.6-2.6 0-4 3.1-4 9.3v10.6c0 3.4.3 6 1 7.7.6 1.7 1.7 2.5 3.1 2.5 1.4 0 2.4-.8 3-2.3.7-1.6 1-4 1-7.3V17.7zm38.6 8.7c0 5.9-1 10.4-3.2 13.5a10.4 10.4 0 0 1-9.1 4.7c-4 0-7-1.5-9.2-4.6-2-3-3.2-7.4-3.3-13v-8c0-6 1.1-10.4 3.2-13.6 2.2-3 5.2-4.6 9.2-4.6 4 0 7 1.5 9.2 4.6 2.1 3 3.2 7.5 3.2 13.2v7.8zm-8.3-8.7c0-3.3-.3-5.9-1-7.5-.7-1.7-1.7-2.6-3.1-2.6-2.6 0-4 3.1-4.1 9.3v10.6c0 3.4.3 6 1 7.7.7 1.7 1.7 2.5 3.2 2.5 1.3 0 2.3-.8 3-2.3.6-1.6 1-4 1-7.3V17.7z" fill="#103AAE"/>
</symbol>

<symbol id="1700" viewBox="0 0 115 45">
<path d="M17 44H8.7V11.4L.6 14.6v-7l15.6-6.3h.8V44zM54.2 6.1L40.7 44h-8.8L45.5 8.2H28.3V1.3h25.9v4.8zm30 20.3c0 5.9-1 10.4-3.2 13.5a10.4 10.4 0 0 1-9 4.7c-4 0-7-1.5-9.2-4.6-2.1-3-3.2-7.4-3.3-13v-8c0-6 1-10.4 3.2-13.6 2.1-3 5.2-4.6 9.1-4.6 4 0 7 1.5 9.2 4.6 2.1 3 3.2 7.5 3.3 13.2v7.8zM76 17.7c0-3.3-.4-5.9-1-7.5-.7-1.7-1.7-2.6-3.2-2.6-2.6 0-4 3.1-4 9.3v10.6c0 3.4.3 6 1 7.7.6 1.7 1.7 2.5 3.1 2.5 1.4 0 2.4-.8 3-2.3.7-1.6 1-4 1-7.3V17.7zm38.6 8.7c0 5.9-1 10.4-3.2 13.5a10.4 10.4 0 0 1-9.1 4.7c-4 0-7-1.5-9.2-4.6-2-3-3.2-7.4-3.3-13v-8c0-6 1.1-10.4 3.2-13.6 2.2-3 5.2-4.6 9.2-4.6 4 0 7 1.5 9.2 4.6 2.1 3 3.2 7.5 3.2 13.2v7.8zm-8.3-8.7c0-3.3-.3-5.9-1-7.5-.7-1.7-1.7-2.6-3.1-2.6-2.6 0-4 3.1-4.1 9.3v10.6c0 3.4.3 6 1 7.7.7 1.7 1.7 2.5 3.2 2.5 1.3 0 2.3-.8 3-2.3.6-1.6 1-4 1-7.3V17.7z" fill="#103AAE"/>
</symbol>

<symbol id="2700" viewBox="0 0 117 45">
<path d="M26 44H.7v-5.9l11.5-14.6c1.5-2 2.6-3.8 3.2-5.4.8-1.5 1.1-3 1.1-4.4 0-1.9-.3-3.4-1-4.4a3 3 0 0 0-2.8-1.7c-1.4 0-2.4.7-3.2 2a10 10 0 0 0-1.2 5.2H.1c0-2.6.5-5 1.6-7.2A12.2 12.2 0 0 1 12.9.8c3.8 0 6.8 1 8.9 3.1C23.9 6 25 9 25 13a17 17 0 0 1-1.8 7.3 44.6 44.6 0 0 1-6.3 9l-5.5 8H26V44zM56.1 6.1L42.7 44h-8.8L47.5 8.2H30.3V1.3h25.9v4.8zm30 20.3c0 5.9-1 10.4-3.2 13.5a10.4 10.4 0 0 1-9 4.7c-4 0-7-1.5-9.2-4.6-2.1-3-3.2-7.4-3.3-13v-8c0-6 1-10.4 3.2-13.6 2.1-3 5.2-4.6 9.1-4.6 4 0 7 1.5 9.2 4.6 2.1 3 3.2 7.5 3.3 13.2v7.8zM78 17.7c0-3.3-.4-5.9-1-7.5-.7-1.7-1.7-2.6-3.2-2.6-2.6 0-4 3.1-4 9.3v10.6c0 3.4.3 6 1 7.7.6 1.7 1.7 2.5 3.1 2.5 1.4 0 2.4-.8 3-2.3.7-1.6 1-4 1-7.3V17.7zm38.6 8.7c0 5.9-1 10.4-3.2 13.5a10.4 10.4 0 0 1-9.1 4.7c-4 0-7-1.5-9.2-4.6-2-3-3.2-7.4-3.3-13v-8c0-6 1.1-10.4 3.2-13.6 2.2-3 5.2-4.6 9.2-4.6 4 0 7 1.5 9.2 4.6 2.1 3 3.2 7.5 3.2 13.2v7.8zm-8.3-8.7c0-3.3-.3-5.9-1-7.5-.7-1.7-1.7-2.6-3.1-2.6-2.6 0-4 3.1-4.1 9.3v10.6c0 3.4.3 6 1 7.7.7 1.7 1.7 2.5 3.2 2.5 1.3 0 2.3-.8 3-2.3.6-1.6 1-4 1-7.3V17.7z" fill="#103AAE"/>
</symbol>

<symbol id="2700__shadow" viewBox="0 0 195 74">
<path opacity=".5" d="M43.5 73H1.6v-9.8L21 38.8c2.4-3.4 4.2-6.4 5.3-9 1.2-2.5 1.8-5 1.8-7.3a14 14 0 0 0-1.7-7.4 5.2 5.2 0 0 0-4.6-2.7c-2.3 0-4 1-5.4 3.1-1.3 2.1-2 5-2 8.8H.5c0-4.3.9-8.3 2.7-12A20.3 20.3 0 0 1 21.9 1c6.4 0 11.3 1.8 14.7 5.3 3.6 3.5 5.3 8.5 5.3 14.9 0 4-1 8-3 12.2-1.8 4.1-5.3 9.2-10.4 15.2l-9.1 13h24.1V73zM94 9.9L71.5 73H56.9l22.5-59.6H51V1.9h43v8zm50.2 33.7c0 9.8-1.8 17.4-5.4 22.6a17.3 17.3 0 0 1-15.2 7.8c-6.5 0-11.6-2.5-15.2-7.6-3.5-5-5.4-12.3-5.5-21.8V31.2c0-9.8 1.8-17.3 5.3-22.5 3.6-5.2 8.7-7.8 15.3-7.8 6.7 0 11.8 2.6 15.3 7.7a39 39 0 0 1 5.4 22v13zm-13.8-14.4c0-5.6-.6-9.8-1.7-12.6-1.1-2.8-2.8-4.2-5.2-4.2-4.4 0-6.7 5.1-6.8 15.4v17.7c0 5.7.5 10 1.6 12.8 1.2 2.8 3 4.2 5.3 4.2s4-1.3 5-3.9a34 34 0 0 0 1.8-12V29.1zm64.4 14.4c0 9.8-1.8 17.4-5.4 22.6a17.3 17.3 0 0 1-15.2 7.8c-6.5 0-11.6-2.5-15.2-7.6-3.5-5-5.4-12.3-5.5-21.8V31.2c0-9.8 1.8-17.3 5.3-22.5C162.3 3.5 167.4 1 174 1c6.6 0 11.7 2.6 15.3 7.7a39 39 0 0 1 5.4 22v13zm-13.9-14.4c0-5.6-.5-9.8-1.6-12.6-1.1-2.8-2.9-4.2-5.2-4.2-4.4 0-6.7 5.1-6.8 15.4v17.7c0 5.7.5 10 1.6 12.8 1.2 2.8 3 4.2 5.3 4.2 2.2 0 4-1.3 5-3.9a34 34 0 0 0 1.7-12V29.1z" fill="#E8E8E8"/>
</symbol>

<symbol id="1700__shadow" viewBox="0 0 191 74">
<path opacity=".5" d="M28 73H14.3V18.7L.7 23.9V12.4L26.6 1.8H28V73zM90 9.9L67.4 73H52.9l22.5-59.6H47V1.9h43v8zM140 43.6c0 9.8-1.8 17.4-5.4 22.6a17.3 17.3 0 0 1-15.2 7.8c-6.5 0-11.6-2.5-15.2-7.6-3.5-5-5.4-12.3-5.5-21.8V31.2c0-9.8 1.8-17.3 5.3-22.5 3.6-5.2 8.7-7.8 15.3-7.8 6.7 0 11.8 2.6 15.3 7.7a39 39 0 0 1 5.4 22v13zm-13.8-14.4c0-5.6-.6-9.8-1.7-12.6-1.1-2.8-2.8-4.2-5.2-4.2-4.4 0-6.7 5.1-6.8 15.4v17.7c0 5.7.5 10 1.6 12.8 1.2 2.8 3 4.2 5.3 4.2s4-1.3 5-3.9a34 34 0 0 0 1.8-12V29.1zm64.4 14.4c0 9.8-1.8 17.4-5.4 22.6a17.3 17.3 0 0 1-15.2 7.8c-6.5 0-11.6-2.5-15.2-7.6-3.5-5-5.4-12.3-5.5-21.8V31.2c0-9.8 1.8-17.3 5.3-22.5C158.3 3.5 163.4 1 170 1c6.6 0 11.7 2.6 15.3 7.7a39 39 0 0 1 5.4 22v13zm-13.9-14.4c0-5.6-.5-9.8-1.6-12.6-1.1-2.8-2.9-4.2-5.2-4.2-4.4 0-6.7 5.1-6.8 15.4v17.7c0 5.7.5 10 1.6 12.8 1.2 2.8 3 4.2 5.3 4.2 2.2 0 4-1.3 5-3.9a34 34 0 0 0 1.7-12V29.1z" fill="#E8E8E8"/>
</symbol>

<symbol id="5000__shadow" viewBox="0 0 194 74">
<path opacity=".5" d="M2 38L5.7 2H40v11.7H16.9L15.6 29c2.7-1.8 5.4-2.7 8.3-2.7a16 16 0 0 1 13.5 6.2c3.2 4.2 4.8 10 4.8 17.7 0 7.1-1.9 12.9-5.7 17.2A19 19 0 0 1 21.4 74c-3.8 0-7.2-.9-10.4-2.7A20 20 0 0 1 .6 53.2h13.7c.2 3 1 5.2 2.2 6.9a5.8 5.8 0 0 0 4.8 2.4c2.3 0 4-1 5.3-3.3 1.2-2.2 1.8-5.5 1.8-9.8 0-4.1-.7-7.2-2.2-9.3A7.1 7.1 0 0 0 20 37c-2.6 0-4.6.9-6 2.7l-1 1.2L2 38zm90.5 5.6c0 9.8-1.8 17.4-5.3 22.6A17.3 17.3 0 0 1 71.9 74c-6.5 0-11.6-2.5-15.2-7.6-3.5-5-5.3-12.3-5.5-21.8V31.2c0-9.8 1.8-17.3 5.3-22.5C60.1 3.5 65.2 1 71.8 1c6.7 0 11.8 2.6 15.3 7.7a39 39 0 0 1 5.4 22v13zM78.7 29.2c0-5.6-.6-9.8-1.7-12.6-1.1-2.8-2.8-4.2-5.2-4.2-4.4 0-6.6 5.1-6.8 15.4v17.7c0 5.7.5 10 1.7 12.8 1 2.8 2.9 4.2 5.2 4.2 2.3 0 4-1.3 5-3.9a34 34 0 0 0 1.8-12V29.1zM143 43.6c0 9.8-1.8 17.4-5.4 22.6a17.3 17.3 0 0 1-15.2 7.8c-6.5 0-11.6-2.5-15.2-7.6-3.5-5-5.4-12.3-5.5-21.8V31.2c0-9.8 1.8-17.3 5.3-22.5 3.6-5.2 8.7-7.8 15.3-7.8 6.7 0 11.8 2.6 15.3 7.7a39 39 0 0 1 5.4 22v13zm-13.8-14.4c0-5.6-.6-9.8-1.7-12.6-1.1-2.8-2.8-4.2-5.2-4.2-4.4 0-6.7 5.1-6.8 15.4v17.7c0 5.7.5 10 1.6 12.8 1.2 2.8 3 4.2 5.3 4.2s4-1.3 5-3.9a34 34 0 0 0 1.8-12V29.1zm64.4 14.4c0 9.8-1.8 17.4-5.4 22.6a17.3 17.3 0 0 1-15.2 7.8c-6.5 0-11.6-2.5-15.2-7.6-3.5-5-5.4-12.3-5.5-21.8V31.2c0-9.8 1.8-17.3 5.3-22.5C161.3 3.5 166.4 1 173 1c6.6 0 11.7 2.6 15.3 7.7a39 39 0 0 1 5.4 22v13zm-13.9-14.4c0-5.6-.5-9.8-1.6-12.6-1.1-2.8-2.9-4.2-5.2-4.2-4.4 0-6.7 5.1-6.8 15.4v17.7c0 5.7.5 10 1.6 12.8 1.2 2.8 3 4.2 5.3 4.2 2.2 0 4-1.3 5-3.9a34 34 0 0 0 1.7-12V29.1z" fill="#E8E8E8"/>
</symbol>

</svg>
