<svg width="103" height="53" fill="none" xmlns="http://www.w3.org/2000/svg"><path d="M10 22.3h4.8c1.8 0 3.1-.6 4-1.9a9 9 0 0 0 1.2-5c0-2-.4-3.6-1.3-4.7-.9-1.2-2-1.7-3.5-1.7-1.3 0-2.5.5-3.3 1.6-.9 1-1.3 2.4-1.3 4H.8c0-2.6.6-5 1.8-7 1.2-2.2 2.9-3.8 5-5C10 1.4 12.4.8 15 .8a15 15 0 0 1 10.9 3.9c2.6 2.5 4 6 4 10.5a12 12 0 0 1-1.9 6.4 12 12 0 0 1-4.7 4.5c2.4 1 4.2 2.5 5.3 4.5 1.2 2 1.8 4.5 1.8 7.3 0 4.4-1.4 8-4.3 10.7-2.8 2.7-6.6 4-11.2 4-4.3 0-7.9-1.2-10.6-3.9-2.6-2.7-4-6.2-4-10.5h9.8c0 1.8.5 3.3 1.5 4.5.9 1.2 2.1 1.8 3.6 1.8 1.6 0 3-.6 4-1.8 1-1.3 1.4-3 1.4-5 0-5-1.9-7.5-5.8-7.5H10v-8zm28.2 4.9l2.5-25.7h24.5V10H48.8l-1 10.8c2-1.2 3.9-1.9 6-1.9 4 0 7.3 1.5 9.5 4.5 2.3 3 3.4 7.1 3.4 12.5 0 5-1.3 9.2-4 12.2a13.5 13.5 0 0 1-10.8 4.7 15 15 0 0 1-7.3-1.9A14.2 14.2 0 0 1 37.2 38H47c.2 2.1.7 3.8 1.6 5a4 4 0 0 0 3.4 1.6c1.6 0 2.8-.7 3.7-2.3.9-1.5 1.3-3.9 1.3-7 0-2.9-.5-5-1.6-6.6a5 5 0 0 0-4.4-2.2c-1.8 0-3.2.7-4.3 2l-.6.8-7.8-2zm64.3 4c0 7-1.3 12.2-3.9 16a12.3 12.3 0 0 1-10.8 5.5c-4.6 0-8.2-1.8-10.8-5.4A27.5 27.5 0 0 1 73.1 32v-9.6c0-7 1.3-12.2 3.8-16C79.4 2.8 83 .9 87.8.9c4.7 0 8.3 1.9 10.8 5.5 2.5 3.7 3.8 8.9 3.9 15.6v9.2zm-9.9-10.3c0-4-.4-7-1.2-9-.8-2-2-3-3.6-3-3.2 0-4.8 3.7-4.9 11v12.6c0 4 .4 7 1.2 9 .8 2 2 3 3.7 3 1.6 0 2.8-.9 3.6-2.7.7-1.9 1.2-4.8 1.2-8.6V21z" fill="url(#paint0_linear)"/><defs><linearGradient id="paint0_linear" x1="-2" y1="3" x2="21.5" y2="70.4" gradientUnits="userSpaceOnUse"><stop stop-color="#D10A42"/><stop offset="1" stop-color="#0041CA"/></linearGradient></defs></svg>