<svg width="65" height="52" fill="none" xmlns="http://www.w3.org/2000/svg"><path d="M1.3 26.2L3.8.5h24.4V9H11.8L11 19.7c2-1.2 3.9-1.9 5.9-1.9 4.2 0 7.4 1.5 9.6 4.5 2.3 3 3.4 7.1 3.4 12.5 0 5-1.3 9.2-4 12.2A13.5 13.5 0 0 1 15 51.7a15 15 0 0 1-7.4-1.9A14.2 14.2 0 0 1 .3 37H10c.2 2.1.7 3.8 1.6 5a4 4 0 0 0 3.4 1.6c1.6 0 2.8-.7 3.7-2.3.9-1.5 1.3-3.9 1.3-7 0-2.9-.5-5-1.6-6.6a5 5 0 0 0-4.4-2.2c-1.8 0-3.3.7-4.3 2l-.6.8-7.8-2zm53.1-3.5h9.8v9.1h-9.8V46h-9.3V32h-10v-9.2h10V9.2h9.3v13.5z" fill="url(#paint0_linear)"/><defs><linearGradient id="paint0_linear" x1="-3" y1="2" x2="28.5" y2="60.7" gradientUnits="userSpaceOnUse"><stop stop-color="#D10A42"/><stop offset="1" stop-color="#0041CA"/></linearGradient></defs></svg>