<svg width="19" height="14" fill="none" xmlns="http://www.w3.org/2000/svg">
<symbol id="icon-vk" viewBox="0 0 24 13">
<path fill-rule="evenodd" clip-rule="evenodd" d="M20.7 8.3l2.3 2.2.8 1.2c.4.6 0 1.3-.5 1.3h-3.5c-.9 0-1.6-.3-2.2-.9l-1.4-1.4-.6-.6c-.5-.3-1-.2-1.2.3-.3.5-.3 1-.4 1.6 0 .7-.3 1-1 1-1.8 0-3.5-.2-5-1S5.4 10 4.5 9C2.7 6.5 1.4 4 0 1.3-.2.8.1.4.7.4h3.5c.4 0 .7.3 1 .7a20 20 0 0 0 2.2 4.1l.9 1c.4.2.7.1 1-.3l.1-.8V2C9.3 1.3 8.9 1 8.2.8 8 .9 8 .7 8.2.5c.2-.3.5-.5 1-.5h4c.6.1.7.4.8 1v4.2c0 .2.1 1 .5 1 .4.2.6-.1.8-.3 1-1 1.6-2.1 2.3-3.3l.7-1.6c.1-.4.4-.6.9-.6h4.1c.6.2.8.4.6 1-.3 1-.9 1.8-1.5 2.5l-2 2.5c-.5.8-.5 1.2.3 1.9z" fill="#fff"/>
</symbol>

<symbol id="icon-insta" viewBox="0 0 24 24">
<path d="M17.5 0h-11C2.9 0 0 3 0 6.5v11C0 21.1 3 24 6.5 24h11c3.6 0 6.5-3 6.5-6.5v-11C24 2.9 21 0 17.5 0zM12 18.6a6.6 6.6 0 1 1 0-13.2 6.6 6.6 0 0 1 0 13.2zM18.7 7a2 2 0 1 1 0-3.9 2 2 0 0 1 0 3.9z" fill="#fff"/><path d="M12 6.8a5.2 5.2 0 1 0 0 10.4 5.2 5.2 0 0 0 0-10.4zM18.7 4.5a.5.5 0 1 0 0 1 .5.5 0 0 0 0-1z" fill="#fff"/>
</symbol>

<symbol id="icon-fb" viewBox="0 0 12 24">
<path d="M11.5 0H8.7C5.4 0 3.3 2.3 3.3 6v2.6H.5c-.3 0-.5.2-.5.5v4c0 .2.2.5.5.5h2.8v10c0 .2.2.4.5.4h3.8c.2 0 .4-.2.4-.5v-10h3.4c.3 0 .5-.2.5-.4V9c0-.1 0-.2-.2-.3l-.3-.2H8V6.3c0-1 .3-1.7 1.6-1.7h2c.2 0 .4-.2.4-.4V.5c0-.3-.2-.5-.5-.5z" fill="#fff"/>
</symbol>

<symbol id="logo-header" viewBox="0 0 87 20"><path d="M.7 5.2c0-1.5.3-2.6 1-3.4C2.5 1 3.5.6 5 .6 6.3.6 7.3 1 8 1.8c.7.8 1.1 1.9 1.1 3.4v.5H6.4V5c0-1.2-.5-1.8-1.4-1.8-1 0-1.5.6-1.5 1.8 0 .7.2 1.3.6 2a8 8 0 0 0 1.4 1.5l1.7 1.6a6.5 6.5 0 0 1 2 4.5c0 1.5-.4 2.6-1.2 3.4-.7.8-1.8 1.2-3.1 1.2-1.4 0-2.5-.4-3.2-1.2C1 17.2.6 16.1.6 14.6v-1h2.7v1.2c0 1.2.5 1.8 1.5 1.8s1.5-.6 1.5-1.8c0-.7-.2-1.3-.6-1.9l-1.4-1.6-1.6-1.5a7 7 0 0 1-1.5-2 6 6 0 0 1-.5-2.6zM11.2.8H14v14c0 1.2.5 1.8 1.5 1.8S17 16 17 14.8V.8h2.7v13.9c0 1.4-.4 2.6-1.1 3.4-.7.7-1.8 1.1-3.2 1.1-1.4 0-2.4-.4-3.2-1.1-.7-.8-1-2-1-3.4V.8zm15.2 0c2.8 0 4.2 1.5 4.2 4.5v2.4c0 3-1.4 4.5-4.2 4.5H25V19h-2.8V.8h4.2zm0 2.6H25v6.2h1.4c.4 0 .8-.2 1-.4.3-.3.4-.7.4-1.4V5.1c0-.6-.1-1-.4-1.3-.2-.3-.6-.4-1-.4zm9 0v5h3.9v2.7h-4v5.3h5V19h-7.8V.8h7.8v2.6h-5zm16 15.6h-2.8c-.2-.5-.3-1.3-.3-2.2v-2.9c0-.8-.2-1.4-.4-1.8-.3-.3-.8-.5-1.5-.5h-1V19h-2.8V.8h4.3c1.5 0 2.5.3 3.2 1 .7.7 1 1.8 1 3.2v1.4c0 1.9-.6 3.1-1.8 3.7 1.2.5 1.9 1.8 1.9 3.9v2.8c0 1 0 1.7.3 2.2zM46.9 3.4h-1.4V9h1.2c.5 0 1-.2 1.2-.5.3-.2.5-.7.5-1.4V5.3c0-1.3-.5-1.9-1.5-1.9zm11 8V9h4v5.7c0 1.5-.3 2.6-1 3.4-.8.8-1.8 1.2-3.2 1.2-1.4 0-2.5-.4-3.2-1.2-.7-.8-1-1.9-1-3.4V5.2c0-1.5.3-2.6 1-3.4.7-.8 1.8-1.2 3.2-1.2 1.4 0 2.4.4 3.2 1.2.7.8 1 1.9 1 3.4v1.7h-2.7V5c0-1.1-.4-1.7-1.4-1.7-1 0-1.5.6-1.5 1.8v9.8c0 1.2.5 1.8 1.5 1.8S59 16 59 14.8v-3.3h-1.3zm8.7 7.6v-6L63 .8h3L68 9.1 70.3.8H73L69.4 13v6h-2.9zM78.6.8l2.1 13 2-13h4V19h-2.8V6l-2 13h-2.6L77 6.1V19h-2.5V.8h4z" fill="#fff"/>
</symbol>

<symbol id="logo-footer--desktop" viewBox="0 0 87 20">
<path d="M.7 5.2c0-1.5.3-2.6 1-3.4C2.5 1 3.5.6 5 .6 6.3.6 7.3 1 8 1.8c.7.8 1.1 1.9 1.1 3.4v.5H6.4V5c0-1.2-.5-1.8-1.4-1.8-1 0-1.5.6-1.5 1.8 0 .7.2 1.3.6 2a8 8 0 0 0 1.4 1.5l1.7 1.6a6.5 6.5 0 0 1 2 4.5c0 1.5-.4 2.6-1.2 3.4-.7.8-1.8 1.2-3.1 1.2-1.4 0-2.5-.4-3.2-1.2C1 17.2.6 16.1.6 14.6v-1h2.7v1.2c0 1.2.5 1.8 1.5 1.8s1.5-.6 1.5-1.8c0-.7-.2-1.3-.6-1.9l-1.4-1.6-1.6-1.5a7 7 0 0 1-1.5-2 6 6 0 0 1-.5-2.6zM11.2.8H14v14c0 1.2.5 1.8 1.5 1.8S17 16 17 14.8V.8h2.7v13.9c0 1.4-.4 2.6-1.1 3.4-.7.7-1.8 1.1-3.2 1.1-1.4 0-2.4-.4-3.2-1.1-.7-.8-1-2-1-3.4V.8zm15.2 0c2.8 0 4.2 1.5 4.2 4.5v2.4c0 3-1.4 4.5-4.2 4.5H25V19h-2.8V.8h4.2zm0 2.6H25v6.2h1.4c.4 0 .8-.2 1-.4.3-.3.4-.7.4-1.4V5.1c0-.6-.1-1-.4-1.3-.2-.3-.6-.4-1-.4zm9 0v5h3.9v2.7h-4v5.3h5V19h-7.8V.8h7.8v2.6h-5zm16 15.6h-2.8c-.2-.5-.3-1.3-.3-2.2v-2.9c0-.8-.2-1.4-.4-1.8-.3-.3-.8-.5-1.5-.5h-1V19h-2.8V.8h4.3c1.5 0 2.5.3 3.2 1 .7.7 1 1.8 1 3.2v1.4c0 1.9-.6 3.1-1.8 3.7 1.2.5 1.9 1.8 1.9 3.9v2.8c0 1 0 1.7.3 2.2zM46.9 3.4h-1.4V9h1.2c.5 0 1-.2 1.2-.5.3-.2.5-.7.5-1.4V5.3c0-1.3-.5-1.9-1.5-1.9zm11 8V9h4v5.7c0 1.5-.3 2.6-1 3.4-.8.8-1.8 1.2-3.2 1.2-1.4 0-2.5-.4-3.2-1.2-.7-.8-1-1.9-1-3.4V5.2c0-1.5.3-2.6 1-3.4.7-.8 1.8-1.2 3.2-1.2 1.4 0 2.4.4 3.2 1.2.7.8 1 1.9 1 3.4v1.7h-2.7V5c0-1.1-.4-1.7-1.4-1.7-1 0-1.5.6-1.5 1.8v9.8c0 1.2.5 1.8 1.5 1.8S59 16 59 14.8v-3.3h-1.3zm8.7 7.6v-6L63 .8h3L68 9.1 70.3.8H73L69.4 13v6h-2.9zM78.6.8l2.1 13 2-13h4V19h-2.8V6l-2 13h-2.6L77 6.1V19h-2.5V.8h4z" fill="#fff"/>
</symbol>

<symbol id="logo-header--tablet" viewBox="0 0 80 18">
<path d="M.6 4.2c0-1.3.4-2.4 1-3C2.3.3 3.2 0 4.6 0c1.2 0 2.2.4 2.8 1.1.7.7 1 1.8 1 3.1v.6H5.9V4c0-1.1-.4-1.7-1.3-1.7S3.3 3 3.3 4.1c0 .6.1 1.2.5 1.7.3.6.8 1 1.3 1.5l1.5 1.4A6 6 0 0 1 8.4 13c0 1.3-.3 2.4-1 3.1-.7.7-1.6 1-3 1-1.2 0-2.2-.3-2.8-1-.7-.7-1-1.8-1-3.1v-1H3V13c0 1.1.5 1.7 1.4 1.7 1 0 1.4-.6 1.4-1.7 0-.6-.2-1.2-.5-1.7L4 9.9 2.4 8.5C2 8 1.5 7.4 1.2 6.7.8 5.9.6 5 .6 4.2zm9.7-4h2.6v13c0 1 .5 1.6 1.4 1.6 1 0 1.4-.6 1.4-1.6V.2h2.5V13c0 1.4-.4 2.4-1 3.1-.7.8-1.7 1.1-3 1.1-1.2 0-2.2-.3-2.9-1-.7-.8-1-1.8-1-3.2V.2zm14 0c2.7 0 4 1.4 4 4.2v2.1c0 2.8-1.3 4.2-4 4.2h-1.2V17h-2.6V.2h3.8zm0 2.4h-1.2v5.7h1.2c.5 0 .8-.1 1-.4.2-.2.3-.6.3-1.2V4.2c0-.6 0-1-.3-1.2-.2-.3-.5-.4-1-.4zm8.3 0v4.7h3.6v2.4h-3.6v4.9h4.6V17H30V.2h7.2v2.4h-4.6zm15 14.4h-2.8l-.2-2v-2.7c0-.8-.2-1.3-.4-1.6-.3-.4-.7-.5-1.3-.5h-1V17h-2.6V.2h4c1.3 0 2.3.3 3 1 .6.6.9 1.6.9 2.9v1.3c0 1.7-.6 2.8-1.7 3.4 1.1.5 1.7 1.7 1.7 3.6V15c0 .9.1 1.6.3 2zM43.1 2.6H42v5.2h1c.6 0 1-.2 1.2-.4.3-.3.5-.8.5-1.4V4.3c0-1.1-.5-1.7-1.4-1.7zM53.4 10V7.6h3.7V13c0 1.3-.3 2.4-1 3.1-.7.7-1.7 1-3 1-1.2 0-2.2-.3-2.9-1-.6-.7-1-1.8-1-3.1V4.2c0-1.3.4-2.4 1-3C51 .3 52 0 53.2 0c1.2 0 2.2.4 2.9 1.1.7.7 1 1.8 1 3.1V6h-2.5V4c0-1.1-.5-1.7-1.4-1.7-.9 0-1.3.6-1.3 1.7v9c0 1.1.4 1.7 1.3 1.7 1 0 1.4-.6 1.4-1.7v-3h-1.2zm8 7v-5.6L58 .2h2.7l2 7.7 2-7.7h2.6L64 11.4V17h-2.6zM72.6.2l2 12 1.7-12H80V17h-2.5V5l-1.8 12h-2.5l-2-11.9V17h-2.3V.2h3.7z" fill="#fff"/>
</symbol>

<symbol id="logo-footer--mobile" viewBox="0 0 67 16">
<path d="M.5 4.4c0-1.2.3-2 .8-2.6C2 1 2.7.8 3.8.8c1 0 1.8.3 2.4 1 .5.6.8 1.4.8 2.6v.4H5v-.6c0-.9-.4-1.4-1.2-1.4-.7 0-1 .5-1 1.4 0 .5 0 1 .4 1.5.3.5.6.9 1 1.2l1.3 1.2A5 5 0 0 1 7 11.6c0 1.2-.3 2-.8 2.7-.6.6-1.4.9-2.5.9-1 0-1.8-.3-2.4-1-.6-.6-.8-1.4-.8-2.6v-.8h2v1c0 .9.4 1.3 1.2 1.3.7 0 1.1-.4 1.1-1.3 0-.5-.1-1-.4-1.5L3.3 9.1 2 7.9c-.4-.4-.7-1-1-1.5-.3-.6-.5-1.3-.5-2zm8-3.4h2.3v10.8c0 1 .4 1.4 1.1 1.4.8 0 1.2-.5 1.2-1.4V1h2v10.7c0 1-.2 2-.8 2.6-.6.6-1.4.9-2.4.9-1.1 0-2-.3-2.5-1-.5-.5-.8-1.4-.8-2.5V1zm11.8 0c2.2 0 3.3 1.2 3.3 3.5v1.8c0 2.3-1.1 3.4-3.3 3.4h-1V15H17V1h3.3zm0 2h-1v4.7h1c.3 0 .6 0 .8-.3.2-.2.3-.5.3-1v-2c0-.6-.1-.9-.3-1.1-.2-.2-.5-.3-.8-.3zm6.9 0v3.9h3v2h-3V13H31v2h-6V1h6v2h-3.8zm12.4 12h-2.2c-.2-.4-.2-1-.2-1.7V11c0-.7-.2-1.1-.4-1.4-.2-.3-.6-.4-1-.4H35V15h-2.2V1H36c1.1 0 2 .3 2.5.8s.7 1.3.7 2.4v1.1c0 1.5-.4 2.4-1.4 2.9 1 .4 1.5 1.4 1.5 3v2.1c0 .8 0 1.3.2 1.7zM36 3h-1v4.3h.8c.5 0 .8-.1 1-.3.2-.3.3-.6.3-1.2V4.4c0-1-.3-1.4-1-1.4zm8.5 6.2v-2h3v4.4c0 1.2-.2 2-.8 2.7-.5.6-1.3.9-2.4.9-1 0-1.9-.3-2.4-1-.6-.6-.9-1.4-.9-2.6V4.4c0-1.2.3-2 .9-2.6.5-.7 1.3-1 2.4-1 1 0 1.9.3 2.4 1 .6.6.9 1.4.9 2.6v1.3h-2.1V4.2c0-.9-.4-1.4-1.1-1.4-.8 0-1.2.5-1.2 1.4v7.6c0 .9.4 1.3 1.2 1.3.7 0 1.1-.4 1.1-1.3V9.2h-1zm6.7 5.8v-4.6L48.4 1h2.3l1.7 6.4L54 1h2.1l-2.7 9.4V15h-2.2zm9.3-14L62 11l1.5-10h3v14h-2V5L63 15h-2l-1.7-9.9V15h-1.9V1h3z" fill="#fff"/>
</symbol>

<symbol id="rub" viewBox="0 0 30 42">
<path fill-rule="evenodd" clip-rule="evenodd" d="M0 17h6v6H0v-6z" fill="#102654"/><path fill-rule="evenodd" clip-rule="evenodd" d="M3.7 28.3V18h6v10.3H21v6H9.7V42h-6v-7.7H0v-6h3.7z" fill="#102654"/><path fill-rule="evenodd" clip-rule="evenodd" d="M18.5 6H10v11h8.5a5.5 5.5 0 1 0 0-11zM4 0v23h14.5a11.5 11.5 0 1 0 0-23H4z" fill="#102654"/>
</symbol>


<symbol id="video-play" viewBox="0 0 13 15">
<path d="M13 7.5L.2 14.9V0L13 7.5z" fill="#fff"/>
</symbol>

</svg>
